<svg xmlns="http://www.w3.org/2000/svg" viewBox="0 0 300 345" width="100%">
  <defs>
    <marker id="arr" markerWidth="8" markerHeight="6" refX="8" refY="3" orient="auto">
      <polygon points="0 0, 8 3, 0 6" fill="#6B7280"/>
    </marker>
  </defs>

  <!-- Step 1: Retailer sends coupon -->
  <rect x="50" y="12" width="200" height="46" rx="23" fill="#D1FAE5" stroke="#10B981" stroke-width="1.5"/>
  <text x="150" y="31" text-anchor="middle" font-family="Arial" font-size="12" font-weight="700" fill="#065F46">Retailer</text>
  <text x="150" y="49" text-anchor="middle" font-family="Arial" font-size="10.5" fill="#065F46">sends coupon via WhatsApp</text>

  <line x1="150" y1="58" x2="150" y2="78" stroke="#6B7280" stroke-width="1.5" marker-end="url(#arr)"/>

  <!-- Step 2: Company WhatsApp -->
  <rect x="50" y="80" width="200" height="46" rx="8" fill="#DBEAFE" stroke="#3B82F6" stroke-width="1.5"/>
  <text x="150" y="99" text-anchor="middle" font-family="Arial" font-size="12" font-weight="700" fill="#1E3A5F">Company</text>
  <text x="150" y="117" text-anchor="middle" font-family="Arial" font-size="10.5" fill="#1E3A5F">WhatsApp number</text>

  <line x1="150" y1="126" x2="150" y2="146" stroke="#6B7280" stroke-width="1.5" marker-end="url(#arr)"/>

  <!-- Step 3: Employee Excel -->
  <rect x="50" y="148" width="200" height="46" rx="8" fill="#FEF3C7" stroke="#F59E0B" stroke-width="1.5"/>
  <text x="150" y="167" text-anchor="middle" font-family="Arial" font-size="12" font-weight="700" fill="#78350F">Employee</text>
  <text x="150" y="185" text-anchor="middle" font-family="Arial" font-size="10.5" fill="#78350F">manually logs into Excel</text>

  <line x1="150" y1="194" x2="150" y2="214" stroke="#6B7280" stroke-width="1.5" marker-end="url(#arr)"/>

  <!-- Step 4: Cashfree -->
  <rect x="50" y="216" width="200" height="46" rx="8" fill="#DBEAFE" stroke="#3B82F6" stroke-width="1.5"/>
  <text x="150" y="235" text-anchor="middle" font-family="Arial" font-size="12" font-weight="700" fill="#1E3A5F">Cashfree Dashboard</text>
  <text x="150" y="253" text-anchor="middle" font-family="Arial" font-size="10.5" fill="#1E3A5F">CSV copy-pasted manually</text>

  <line x1="150" y1="262" x2="150" y2="282" stroke="#6B7280" stroke-width="1.5" marker-end="url(#arr)"/>

  <!-- Step 5: Retailer receives -->
  <rect x="50" y="284" width="200" height="46" rx="23" fill="#D1FAE5" stroke="#10B981" stroke-width="1.5"/>
  <text x="150" y="303" text-anchor="middle" font-family="Arial" font-size="12" font-weight="700" fill="#065F46">Retailer</text>
  <text x="150" y="321" text-anchor="middle" font-family="Arial" font-size="10.5" fill="#065F46">receives cashback via UPI</text>
</svg>
